<svg width="512" height="512" viewBox="0 0 512 512" fill="none" xmlns="http://www.w3.org/2000/svg">
  <rect width="512" height="512" rx="96" fill="#0A0A0A"/>
  <path d="M256 96c0 0-12 24-12 48c0 16 8 28 12 36c4-8 12-20 12-36c0-24-12-48-12-48z
           M192 200c0 0 24 40 24 80c0 24-8 44-16 56c12-4 28-16 36-32c8 20 24 36 40 44
           c-8-16-16-40-16-68c0-44-28-80-28-80s-16 24-16 48c0 16 4 28 8 36c-12-8-24-28-24-52
           c0-20 8-36 8-36s-16 4-16 4z
           M256 416c-72 0-112-48-112-104c0-56 40-104 64-136c-8 24-12 44-12 64c0 36 16 64 32 80
           c-8-16-12-36-12-56c0-40 24-76 40-96c16 28 40 60 40 96c0 20-4 40-12 56c16-16 32-44 32-80
           c0-20-4-40-12-64c24 32 64 80 64 136c0 56-40 104-112 104z"
        fill="#EA580C"/>
  <path d="M256 416c-32 0-56-20-56-52c0-28 20-56 32-72c12 20 32 44 32 72
           c0 12-4 28-8 40c0 8 0 12 0 12z"
        fill="#FB923C" opacity="0.7"/>
</svg>
